<svg id="a71cd52b-8309-4c0b-a796-32ff73af0ab7" data-name="Capa 1" xmlns="http://www.w3.org/2000/svg" viewBox="0 0 343 98"><defs><style>.ff832f8f-002d-4c30-b40b-e789ad14bac2{fill:#fff;}</style></defs><path class="ff832f8f-002d-4c30-b40b-e789ad14bac2" d="M0,0V98H68.6V0ZM31.85,8.17h1.63V6.53h1.64V8.17h1.63V9.8H35.12v1.63H33.48V9.8H31.85V8.17ZM19.6,78.4H16.33v3.27H13.07V78.4H9.8V75.13h3.27V71.87h3.26v3.26H19.6Zm0-19.6H16.33v3.27H13.07V58.8H9.8V55.53h3.27V52.27h3.26v3.26H19.6Zm0-19.6H16.33v3.27H13.07V39.2H9.8V35.93h3.27V32.67h3.26v3.26H19.6ZM36,73.37c0,.58-.07,1.17-.07,1.76A22.79,22.79,0,0,0,40,88.2H28.57a22.79,22.79,0,0,0,4.1-13.07c0-.59,0-1.18-.07-1.76a11.43,11.43,0,0,1-9.73-11.3H45.73A11.43,11.43,0,0,1,36,73.37Zm3.2-37.44V39.2H35.93v3.27H32.67V39.2H29.4V35.93h3.27V32.67h3.26v3.26Zm-4.9,9.8a6.54,6.54,0,1,1-6.53,6.54A6.53,6.53,0,0,1,34.3,45.73ZM45.73,28.58H22.87V26.13H45.73ZM48,22l-1.2,1.71H43.79L46,20.53a3.27,3.27,0,0,0,.5-1.68,2.69,2.69,0,0,0-.74-1.93A2.94,2.94,0,0,0,43.58,16,6,6,0,0,0,43,16h0a7.07,7.07,0,0,1,.28,1.87,5.33,5.33,0,0,1-.68,2.91l-1.7,2.87h-3l2.42-4.1a3.92,3.92,0,0,0,.4-1.68,2.85,2.85,0,0,0-.8-2.08,3,3,0,0,0-2.16-1,2.69,2.69,0,0,0-2.23.89v8H33.08v-8a2.69,2.69,0,0,0-2.23-.89,3,3,0,0,0-2.16,1,2.85,2.85,0,0,0-.8,2.08,3.92,3.92,0,0,0,.4,1.68l2.42,4.1h-3L26,20.8a5.27,5.27,0,0,1-.68-2.9A7.07,7.07,0,0,1,25.64,16h0A6,6,0,0,0,25,16a2.94,2.94,0,0,0-2.16.91,2.66,2.66,0,0,0-.74,1.92,3.28,3.28,0,0,0,.5,1.69l2.19,3.15h-3L20.56,22a5.2,5.2,0,0,1-1-3.13,5,5,0,0,1,1.59-3.78A5.18,5.18,0,0,1,25,13.42a6.34,6.34,0,0,1,2,.36,1.45,1.45,0,0,1,.18-.17,5.14,5.14,0,0,1,3.63-1.36,5.74,5.74,0,0,1,3.45,1.14,5.76,5.76,0,0,1,3.45-1.14,5.14,5.14,0,0,1,3.63,1.36,1.45,1.45,0,0,1,.18.17,6.34,6.34,0,0,1,2-.36,5.18,5.18,0,0,1,3.83,1.64A5,5,0,0,1,49,18.84,5.2,5.2,0,0,1,48,22ZM58.8,78.4H55.53v3.27H52.27V78.4H49V75.13h3.27V71.87h3.26v3.26H58.8Zm0-19.6H55.53v3.27H52.27V58.8H49V55.53h3.27V52.27h3.26v3.26H58.8Zm0-19.6H55.53v3.27H52.27V39.2H49V35.93h3.27V32.67h3.26v3.26H58.8Zm55.3,32.41c0,10.61-6.11,16.58-15.1,16.58H88.2V55.51H98.52C107.9,55.51,114.1,61.33,114.1,71.61Zm-4.54,0c0-8.1-4.69-12.12-11.13-12.12h-6V84.21h6.25C105.06,84.21,109.56,80,109.56,71.61Zm12.26-16.1h20.09l-1.33,4H126.09v9.66h13v4h-13V84.21h14.68l1.32,4H121.82V55.51Zm39.35,16.2c0-10.19,6.35-17,16.06-17a23.91,23.91,0,0,1,11.23,3.32V63c-4-2.51-8.39-4.17-11.23-4.17-6.77,0-11.51,5.17-11.51,12.89C165.72,79.9,169.84,85,176,85c5.69,0,9.81-3.6,10.33-9.71h-9.14l-1.28-4h14.63a14.48,14.48,0,0,1,.29,3C190.78,82.93,185.05,89,176,89S161.17,82.36,161.17,71.71Zm47.27-16.2h2.75l13.73,32.68h-4.68l-3.18-8H202.43l-3.22,8h-4.5ZM215.5,76.3,209.77,62,204,76.3Zm15.35-20.79h4.26v28.7h15.15l1.33,4H230.85Zm26.85,0H262V88.19H257.7Zm12,16.1c0-10.13,5.54-16.86,14.4-16.86A18.86,18.86,0,0,1,295,58.4v5c-3.6-2.7-7.57-4.55-10.89-4.55-5.68,0-9.85,4.84-9.85,12.79,0,8.24,4,13.26,9.85,13.26,3.32,0,7.29-1.84,10.89-4.54v5A18.86,18.86,0,0,1,284.08,89C275,89,269.68,82,269.68,71.61Zm32.92-16.1h4.26V88.19H302.6Zm23.92,0h2.74L343,88.19h-4.69l-3.17-8H320.5l-3.22,8h-4.5Zm7.05,20.79L327.84,62,322.07,76.3ZM99.24,25.65,88.77,9.79h5l8.14,12.36,8-12.36h4.83l-10.46,16,11,16.72h-5l-8.71-13.22L93,42.47H88.21Zm21.32,5.88V9.79h4.26V31.34c0,5.06,3.08,7.91,7.81,7.91s7.82-2.85,7.82-7.91V9.79h4.26V31.53c0,7.34-4.69,11.79-12.08,11.79S120.56,38.87,120.56,31.53ZM154,9.79h3.6l16.72,23.3V9.79h4.26V42.47h-2.41l-17.91-25v25H154Zm43.58,4H185.78l-1.33-4H215l-1.32,4H201.88v28.7h-4.26Zm29.6-4H230L243.7,42.47H239l-3.17-8H221.2l-3.22,8h-4.5Zm7.05,20.79-5.73-14.35-5.77,14.35Z"/></svg>